<mxfile host="Electron" modified="2024-02-16T20:22:05.931Z" agent="Mozilla/5.0 (Macintosh; Intel Mac OS X 10_15_7) AppleWebKit/537.36 (KHTML, like Gecko) draw.io/23.1.5 Chrome/120.0.6099.109 Electron/28.1.0 Safari/537.36" etag="1eyKj36lSQPxUI1Wfpsn" version="23.1.5" type="device">
  <diagram name="diagram2" id="KenW7vIUKHTiLhVvsAD5">
    <mxGraphModel dx="1035" dy="671" grid="1" gridSize="10" guides="1" tooltips="1" connect="1" arrows="1" fold="1" page="1" pageScale="1" pageWidth="680" pageHeight="409" math="0" shadow="0">
      <root>
        <mxCell id="V_574r8uO0_lqwqY8eq--0" />
        <mxCell id="V_574r8uO0_lqwqY8eq--1" parent="V_574r8uO0_lqwqY8eq--0" />
        <mxCell id="V_574r8uO0_lqwqY8eq--2" value="&lt;b&gt;&lt;font style=&quot;font-size: 14px;&quot;&gt;Customer&lt;/font&gt;&lt;/b&gt;" style="shape=umlLifeline;perimeter=lifelinePerimeter;whiteSpace=wrap;html=1;container=0;dropTarget=0;collapsible=0;recursiveResize=0;outlineConnect=0;portConstraint=eastwest;newEdgeStyle={&quot;edgeStyle&quot;:&quot;elbowEdgeStyle&quot;,&quot;elbow&quot;:&quot;vertical&quot;,&quot;curved&quot;:0,&quot;rounded&quot;:0};fillColor=#f5f5f5;strokeColor=#666666;fontColor=#333333;" parent="V_574r8uO0_lqwqY8eq--1" vertex="1">
          <mxGeometry x="40" y="40" width="120" height="330" as="geometry" />
        </mxCell>
        <mxCell id="V_574r8uO0_lqwqY8eq--3" value="" style="html=1;points=[];perimeter=orthogonalPerimeter;outlineConnect=0;targetShapes=umlLifeline;portConstraint=eastwest;newEdgeStyle={&quot;edgeStyle&quot;:&quot;elbowEdgeStyle&quot;,&quot;elbow&quot;:&quot;vertical&quot;,&quot;curved&quot;:0,&quot;rounded&quot;:0};fillColor=#f5f5f5;strokeColor=#666666;fontColor=#333333;" parent="V_574r8uO0_lqwqY8eq--2" vertex="1">
          <mxGeometry x="55" y="60" width="10" height="250" as="geometry" />
        </mxCell>
        <mxCell id="V_574r8uO0_lqwqY8eq--4" value="dispatch" style="html=1;verticalAlign=bottom;startArrow=oval;endArrow=block;startSize=8;edgeStyle=elbowEdgeStyle;elbow=vertical;curved=0;rounded=0;" parent="V_574r8uO0_lqwqY8eq--2" edge="1">
          <mxGeometry y="-20" relative="1" as="geometry">
            <mxPoint y="60" as="sourcePoint" />
            <mxPoint x="55" y="60.14285714285711" as="targetPoint" />
            <mxPoint as="offset" />
          </mxGeometry>
        </mxCell>
        <mxCell id="V_574r8uO0_lqwqY8eq--5" value="&lt;font style=&quot;font-size: 14px;&quot;&gt;:ATM&lt;/font&gt;" style="shape=umlLifeline;perimeter=lifelinePerimeter;whiteSpace=wrap;html=1;container=0;dropTarget=0;collapsible=0;recursiveResize=0;outlineConnect=0;portConstraint=eastwest;newEdgeStyle={&quot;edgeStyle&quot;:&quot;elbowEdgeStyle&quot;,&quot;elbow&quot;:&quot;vertical&quot;,&quot;curved&quot;:0,&quot;rounded&quot;:0};fillColor=#dae8fc;strokeColor=#6c8ebf;" parent="V_574r8uO0_lqwqY8eq--1" vertex="1">
          <mxGeometry x="200" y="40" width="120" height="330" as="geometry" />
        </mxCell>
        <mxCell id="V_574r8uO0_lqwqY8eq--6" value="" style="html=1;points=[];perimeter=orthogonalPerimeter;outlineConnect=0;targetShapes=umlLifeline;portConstraint=eastwest;newEdgeStyle={&quot;edgeStyle&quot;:&quot;elbowEdgeStyle&quot;,&quot;elbow&quot;:&quot;vertical&quot;,&quot;curved&quot;:0,&quot;rounded&quot;:0};fillColor=#dae8fc;strokeColor=#6c8ebf;" parent="V_574r8uO0_lqwqY8eq--5" vertex="1">
          <mxGeometry x="55" y="70" width="10" height="230" as="geometry" />
        </mxCell>
        <mxCell id="V_574r8uO0_lqwqY8eq--7" value="&lt;font face=&quot;Helvetica&quot;&gt;insert card &amp;amp; pin&lt;/font&gt;" style="html=1;verticalAlign=bottom;endArrow=block;edgeStyle=elbowEdgeStyle;elbow=horizontal;curved=0;rounded=0;align=center;" parent="V_574r8uO0_lqwqY8eq--1" source="V_574r8uO0_lqwqY8eq--3" target="V_574r8uO0_lqwqY8eq--6" edge="1">
          <mxGeometry relative="1" as="geometry">
            <mxPoint x="110" y="120" as="sourcePoint" />
            <Array as="points">
              <mxPoint x="180" y="120" />
            </Array>
            <mxPoint x="240" y="120" as="targetPoint" />
            <mxPoint as="offset" />
          </mxGeometry>
        </mxCell>
        <mxCell id="V_574r8uO0_lqwqY8eq--9" value="&lt;font style=&quot;font-size: 14px;&quot;&gt;:BankAccount&lt;/font&gt;" style="shape=umlLifeline;perimeter=lifelinePerimeter;whiteSpace=wrap;html=1;container=0;dropTarget=0;collapsible=0;recursiveResize=0;outlineConnect=0;portConstraint=eastwest;newEdgeStyle={&quot;edgeStyle&quot;:&quot;elbowEdgeStyle&quot;,&quot;elbow&quot;:&quot;vertical&quot;,&quot;curved&quot;:0,&quot;rounded&quot;:0};fillColor=#d5e8d4;strokeColor=#82b366;" parent="V_574r8uO0_lqwqY8eq--1" vertex="1">
          <mxGeometry x="360" y="40" width="120" height="330" as="geometry" />
        </mxCell>
        <mxCell id="V_574r8uO0_lqwqY8eq--10" value="" style="html=1;points=[];perimeter=orthogonalPerimeter;outlineConnect=0;targetShapes=umlLifeline;portConstraint=eastwest;newEdgeStyle={&quot;edgeStyle&quot;:&quot;elbowEdgeStyle&quot;,&quot;elbow&quot;:&quot;vertical&quot;,&quot;curved&quot;:0,&quot;rounded&quot;:0};fillColor=#d5e8d4;strokeColor=#82b366;" parent="V_574r8uO0_lqwqY8eq--9" vertex="1">
          <mxGeometry x="55" y="80" width="10" height="50" as="geometry" />
        </mxCell>
        <mxCell id="V_574r8uO0_lqwqY8eq--11" value="&lt;font style=&quot;font-size: 14px;&quot;&gt;:CashVault&lt;/font&gt;" style="shape=umlLifeline;perimeter=lifelinePerimeter;whiteSpace=wrap;html=1;container=0;dropTarget=0;collapsible=0;recursiveResize=0;outlineConnect=0;portConstraint=eastwest;newEdgeStyle={&quot;edgeStyle&quot;:&quot;elbowEdgeStyle&quot;,&quot;elbow&quot;:&quot;vertical&quot;,&quot;curved&quot;:0,&quot;rounded&quot;:0};fillColor=#ffe6cc;strokeColor=#d79b00;" parent="V_574r8uO0_lqwqY8eq--1" vertex="1">
          <mxGeometry x="520" y="40" width="120" height="330" as="geometry" />
        </mxCell>
        <mxCell id="V_574r8uO0_lqwqY8eq--12" value="" style="html=1;points=[];perimeter=orthogonalPerimeter;outlineConnect=0;targetShapes=umlLifeline;portConstraint=eastwest;newEdgeStyle={&quot;edgeStyle&quot;:&quot;elbowEdgeStyle&quot;,&quot;elbow&quot;:&quot;vertical&quot;,&quot;curved&quot;:0,&quot;rounded&quot;:0};fillColor=#ffe6cc;strokeColor=#d79b00;" parent="V_574r8uO0_lqwqY8eq--11" vertex="1">
          <mxGeometry x="55" y="250" width="10" height="50" as="geometry" />
        </mxCell>
        <mxCell id="S4NcA5JRzc8WdYCnTzBv-2" value="&lt;font face=&quot;Helvetica&quot;&gt;select withdraw&lt;/font&gt;" style="html=1;verticalAlign=bottom;endArrow=block;edgeStyle=elbowEdgeStyle;elbow=horizontal;curved=0;rounded=0;align=center;" parent="V_574r8uO0_lqwqY8eq--1" source="V_574r8uO0_lqwqY8eq--3" target="V_574r8uO0_lqwqY8eq--6" edge="1">
          <mxGeometry relative="1" as="geometry">
            <mxPoint x="110" y="220" as="sourcePoint" />
            <Array as="points">
              <mxPoint x="220" y="220" />
              <mxPoint x="220" y="200" />
              <mxPoint x="240" y="210" />
              <mxPoint x="230" y="190" />
              <mxPoint x="205" y="160" />
            </Array>
            <mxPoint x="250" y="220" as="targetPoint" />
            <mxPoint as="offset" />
          </mxGeometry>
        </mxCell>
        <mxCell id="S4NcA5JRzc8WdYCnTzBv-3" value="acknowledge" style="html=1;verticalAlign=bottom;endArrow=open;dashed=1;endSize=8;edgeStyle=elbowEdgeStyle;elbow=vertical;curved=0;rounded=0;" parent="V_574r8uO0_lqwqY8eq--1" source="V_574r8uO0_lqwqY8eq--6" target="V_574r8uO0_lqwqY8eq--3" edge="1">
          <mxGeometry relative="1" as="geometry">
            <mxPoint x="130" y="150" as="targetPoint" />
            <Array as="points">
              <mxPoint x="210" y="150" />
              <mxPoint x="166.25" y="130" />
              <mxPoint x="151.25" y="140" />
            </Array>
            <mxPoint x="240" y="150" as="sourcePoint" />
          </mxGeometry>
        </mxCell>
        <mxCell id="S4NcA5JRzc8WdYCnTzBv-6" value="validate pin" style="html=1;verticalAlign=bottom;endArrow=block;edgeStyle=elbowEdgeStyle;elbow=horizontal;curved=0;rounded=0;align=center;" parent="V_574r8uO0_lqwqY8eq--1" source="V_574r8uO0_lqwqY8eq--6" target="V_574r8uO0_lqwqY8eq--10" edge="1">
          <mxGeometry relative="1" as="geometry">
            <mxPoint x="290" y="130" as="sourcePoint" />
            <Array as="points">
              <mxPoint x="355" y="130" />
              <mxPoint x="330" y="100" />
            </Array>
            <mxPoint x="400" y="130" as="targetPoint" />
            <mxPoint as="offset" />
          </mxGeometry>
        </mxCell>
        <mxCell id="S4NcA5JRzc8WdYCnTzBv-9" value="report authorization" style="html=1;verticalAlign=bottom;endArrow=open;dashed=1;endSize=8;edgeStyle=elbowEdgeStyle;elbow=vertical;curved=0;rounded=0;" parent="V_574r8uO0_lqwqY8eq--1" source="V_574r8uO0_lqwqY8eq--10" target="V_574r8uO0_lqwqY8eq--6" edge="1">
          <mxGeometry relative="1" as="geometry">
            <mxPoint x="280" y="160" as="targetPoint" />
            <Array as="points">
              <mxPoint x="340" y="160" />
              <mxPoint x="316.25" y="150" />
              <mxPoint x="301.25" y="160" />
            </Array>
            <mxPoint x="400" y="160" as="sourcePoint" />
          </mxGeometry>
        </mxCell>
        <mxCell id="S4NcA5JRzc8WdYCnTzBv-14" value="" style="html=1;points=[];perimeter=orthogonalPerimeter;outlineConnect=0;targetShapes=umlLifeline;portConstraint=eastwest;newEdgeStyle={&quot;edgeStyle&quot;:&quot;elbowEdgeStyle&quot;,&quot;elbow&quot;:&quot;vertical&quot;,&quot;curved&quot;:0,&quot;rounded&quot;:0};fillColor=#d5e8d4;strokeColor=#82b366;" parent="V_574r8uO0_lqwqY8eq--1" vertex="1">
          <mxGeometry x="415" y="220" width="10" height="90" as="geometry" />
        </mxCell>
        <mxCell id="S4NcA5JRzc8WdYCnTzBv-16" value="&lt;font face=&quot;Courier New&quot;&gt;withdraw(amount)&lt;/font&gt;" style="html=1;verticalAlign=bottom;endArrow=block;edgeStyle=elbowEdgeStyle;elbow=horizontal;curved=0;rounded=0;align=center;" parent="V_574r8uO0_lqwqY8eq--1" source="V_574r8uO0_lqwqY8eq--6" target="S4NcA5JRzc8WdYCnTzBv-14" edge="1">
          <mxGeometry relative="1" as="geometry">
            <mxPoint x="280" y="230" as="sourcePoint" />
            <Array as="points">
              <mxPoint x="330" y="230" />
              <mxPoint x="370" y="220" />
              <mxPoint x="400" y="200" />
              <mxPoint x="420" y="210" />
              <mxPoint x="410" y="190" />
              <mxPoint x="385" y="160" />
            </Array>
            <mxPoint x="400" y="230" as="targetPoint" />
            <mxPoint as="offset" />
          </mxGeometry>
        </mxCell>
        <mxCell id="S4NcA5JRzc8WdYCnTzBv-17" value="&lt;font face=&quot;Helvetica&quot;&gt;check funds&lt;/font&gt;" style="html=1;verticalAlign=bottom;endArrow=block;edgeStyle=elbowEdgeStyle;elbow=horizontal;curved=0;rounded=0;align=center;" parent="V_574r8uO0_lqwqY8eq--1" source="S4NcA5JRzc8WdYCnTzBv-14" edge="1">
          <mxGeometry x="-0.1852" relative="1" as="geometry">
            <mxPoint x="440" y="240" as="sourcePoint" />
            <Array as="points">
              <mxPoint x="480" y="240" />
              <mxPoint x="575" y="220" />
              <mxPoint x="595" y="230" />
              <mxPoint x="585" y="210" />
              <mxPoint x="560" y="180" />
            </Array>
            <mxPoint x="430" y="270" as="targetPoint" />
            <mxPoint as="offset" />
          </mxGeometry>
        </mxCell>
        <mxCell id="S4NcA5JRzc8WdYCnTzBv-18" value="report availability" style="html=1;verticalAlign=bottom;endArrow=open;dashed=1;endSize=8;edgeStyle=elbowEdgeStyle;elbow=vertical;curved=0;rounded=0;" parent="V_574r8uO0_lqwqY8eq--1" source="S4NcA5JRzc8WdYCnTzBv-14" target="V_574r8uO0_lqwqY8eq--6" edge="1">
          <mxGeometry relative="1" as="geometry">
            <mxPoint x="280" y="260" as="targetPoint" />
            <Array as="points">
              <mxPoint x="380" y="260" />
              <mxPoint x="325" y="250" />
              <mxPoint x="301.25" y="240" />
              <mxPoint x="286.25" y="250" />
            </Array>
            <mxPoint x="400" y="260" as="sourcePoint" />
          </mxGeometry>
        </mxCell>
        <mxCell id="S4NcA5JRzc8WdYCnTzBv-19" value="&lt;font face=&quot;Courier New&quot;&gt;retrieve(amount)&lt;/font&gt;" style="html=1;verticalAlign=bottom;endArrow=block;edgeStyle=elbowEdgeStyle;elbow=horizontal;curved=0;rounded=0;align=center;" parent="V_574r8uO0_lqwqY8eq--1" source="S4NcA5JRzc8WdYCnTzBv-14" target="V_574r8uO0_lqwqY8eq--12" edge="1">
          <mxGeometry relative="1" as="geometry">
            <mxPoint x="440" y="300" as="sourcePoint" />
            <Array as="points">
              <mxPoint x="550" y="300" />
              <mxPoint x="575" y="270" />
              <mxPoint x="595" y="280" />
              <mxPoint x="585" y="260" />
              <mxPoint x="560" y="230" />
            </Array>
            <mxPoint x="560" y="300" as="targetPoint" />
            <mxPoint as="offset" />
          </mxGeometry>
        </mxCell>
        <mxCell id="S4NcA5JRzc8WdYCnTzBv-21" value="eject cash" style="html=1;verticalAlign=bottom;endArrow=open;dashed=1;endSize=8;edgeStyle=elbowEdgeStyle;elbow=vertical;curved=0;rounded=0;" parent="V_574r8uO0_lqwqY8eq--1" source="V_574r8uO0_lqwqY8eq--12" target="V_574r8uO0_lqwqY8eq--6" edge="1">
          <mxGeometry relative="1" as="geometry">
            <mxPoint x="280" y="330" as="targetPoint" />
            <Array as="points">
              <mxPoint x="510" y="330" />
              <mxPoint x="335" y="320" />
              <mxPoint x="311.25" y="310" />
              <mxPoint x="296.25" y="320" />
            </Array>
            <mxPoint x="560" y="330" as="sourcePoint" />
          </mxGeometry>
        </mxCell>
        <mxCell id="S4NcA5JRzc8WdYCnTzBv-23" value="get cash" style="html=1;verticalAlign=bottom;endArrow=open;dashed=1;endSize=8;edgeStyle=elbowEdgeStyle;elbow=vertical;curved=0;rounded=0;" parent="V_574r8uO0_lqwqY8eq--1" source="V_574r8uO0_lqwqY8eq--6" target="V_574r8uO0_lqwqY8eq--3" edge="1">
          <mxGeometry relative="1" as="geometry">
            <mxPoint x="120" y="320" as="targetPoint" />
            <Array as="points">
              <mxPoint x="220" y="320" />
              <mxPoint x="170" y="310" />
              <mxPoint x="146.25" y="300" />
              <mxPoint x="131.25" y="310" />
            </Array>
            <mxPoint x="250" y="320" as="sourcePoint" />
          </mxGeometry>
        </mxCell>
        <mxCell id="S4NcA5JRzc8WdYCnTzBv-25" value="acknowledge" style="html=1;verticalAlign=bottom;endArrow=open;dashed=1;endSize=8;edgeStyle=elbowEdgeStyle;elbow=vertical;curved=0;rounded=0;" parent="V_574r8uO0_lqwqY8eq--1" source="V_574r8uO0_lqwqY8eq--6" target="V_574r8uO0_lqwqY8eq--3" edge="1">
          <mxGeometry relative="1" as="geometry">
            <mxPoint x="120" y="250" as="targetPoint" />
            <Array as="points">
              <mxPoint x="230" y="250" />
              <mxPoint x="205" y="240" />
              <mxPoint x="161.25" y="220" />
              <mxPoint x="146.25" y="230" />
            </Array>
            <mxPoint x="250" y="250" as="sourcePoint" />
          </mxGeometry>
        </mxCell>
        <mxCell id="UvqTBspoTR0_oPc05_zr-0" value="alt" style="shape=umlFrame;whiteSpace=wrap;html=1;rounded=1;shadow=0;comic=0;labelBackgroundColor=none;strokeWidth=1;fontFamily=Verdana;fontSize=12;align=center;" vertex="1" parent="V_574r8uO0_lqwqY8eq--1">
          <mxGeometry x="40" y="190" width="600" height="170" as="geometry" />
        </mxCell>
      </root>
    </mxGraphModel>
  </diagram>
</mxfile>
